<svg xmlns="http://www.w3.org/2000/svg" viewBox="0 0 512 512">
  <!-- Background circle -->
  <circle cx="256" cy="256" r="256" fill="#059669"/>

  <!-- Frog face -->
  <ellipse cx="256" cy="300" rx="140" ry="120" fill="#86EFAC"/>

  <!-- Lighter belly/face area -->
  <ellipse cx="256" cy="320" rx="100" ry="80" fill="#BBF7D0"/>

  <!-- Eye bumps -->
  <circle cx="190" cy="230" r="52" fill="#86EFAC"/>
  <circle cx="322" cy="230" r="52" fill="#86EFAC"/>

  <!-- Eyes - white part -->
  <circle cx="190" cy="230" r="38" fill="white"/>
  <circle cx="322" cy="230" r="38" fill="white"/>

  <!-- Pupils -->
  <circle cx="198" cy="235" r="20" fill="#1F2937"/>
  <circle cx="330" cy="235" r="20" fill="#1F2937"/>

  <!-- Eye shine -->
  <circle cx="188" cy="222" r="9" fill="white"/>
  <circle cx="320" cy="222" r="9" fill="white"/>

  <!-- Blush marks -->
  <ellipse cx="145" cy="310" rx="25" ry="15" fill="#FECACA" opacity="0.6"/>
  <ellipse cx="367" cy="310" rx="25" ry="15" fill="#FECACA" opacity="0.6"/>

  <!-- Smile -->
  <path d="M200 355 Q256 405 312 355" fill="none" stroke="#166534" stroke-width="12" stroke-linecap="round"/>

  <!-- Nostrils -->
  <circle cx="230" cy="320" r="7" fill="#166534"/>
  <circle cx="282" cy="320" r="7" fill="#166534"/>

  <!-- Chef hat body -->
  <path d="M145 175 C145 175 140 70 256 70 C372 70 367 175 367 175" fill="#FFFBEB" stroke="#D1D5DB" stroke-width="4"/>

  <!-- Chef hat top puffs -->
  <circle cx="200" cy="90" r="38" fill="#FFFBEB" stroke="#D1D5DB" stroke-width="3"/>
  <circle cx="256" cy="75" r="44" fill="#FFFBEB" stroke="#D1D5DB" stroke-width="3"/>
  <circle cx="312" cy="90" r="38" fill="#FFFBEB" stroke="#D1D5DB" stroke-width="3"/>

  <!-- Hat base/rim -->
  <ellipse cx="256" cy="175" rx="110" ry="28" fill="#FFFBEB"/>
  <path d="M 146 175 A 110 28 0 0 0 366 175" stroke="#D1D5DB" stroke-width="4" fill="none"/>
</svg>
